HIERARCHY
ROOT joint_Root
{
	OFFSET 0.0 0.0 0.0
	CHANNELS 6 Xposition Yposition Zposition Zrotation Xrotation Yrotation 
	JOINT Hips
	{
		OFFSET 4.5925 91.4895 -427.239
		CHANNELS 6 Xposition Yposition Zposition Zrotation Xrotation Yrotation 
		JOINT Spine
		{
			OFFSET 15.7357 0.0 0.0
			CHANNELS 6 Xposition Yposition Zposition Zrotation Xrotation Yrotation 
			JOINT Chest
			{
				OFFSET 8.98455 -0.406207 0.0
				CHANNELS 6 Xposition Yposition Zposition Zrotation Xrotation Yrotation 
				JOINT Neck
				{
					OFFSET 16.3773 0.0 0.0
					CHANNELS 6 Xposition Yposition Zposition Zrotation Xrotation Yrotation 
					JOINT Head
					{
						OFFSET 6.45672 0.0 0.0
						CHANNELS 6 Xposition Yposition Zposition Zrotation Xrotation Yrotation 
						End Site
						{
							OFFSET 0.0 0.0 0.0
						}
					}
				}
				JOINT Shoulder_L
				{
					OFFSET 12.9942 -0.242716 4.98039
					CHANNELS 6 Xposition Yposition Zposition Zrotation Xrotation Yrotation 
					JOINT UpperArm_L
					{
						OFFSET 5.34809 0.0 0.0
						CHANNELS 6 Xposition Yposition Zposition Zrotation Xrotation Yrotation 
						JOINT LowerArm_L
						{
							OFFSET 24.3286 1.87007e-05 0.0
							CHANNELS 6 Xposition Yposition Zposition Zrotation Xrotation Yrotation 
							JOINT Hand_L
							{
								OFFSET 22.2916 0.0 0.0
								CHANNELS 6 Xposition Yposition Zposition Zrotation Xrotation Yrotation 
								End Site
								{
									OFFSET 0.0 0.0 0.0
								}
							}
						}
					}
				}
				JOINT Shoulder_R
				{
					OFFSET 12.9945 -0.242716 -4.98039
					CHANNELS 6 Xposition Yposition Zposition Zrotation Xrotation Yrotation 
					JOINT UpperArm_R
					{
						OFFSET -5.34813 0.0 0.0
						CHANNELS 6 Xposition Yposition Zposition Zrotation Xrotation Yrotation 
						JOINT LowerArm_R
						{
							OFFSET -24.3289 0.000322201 0.0
							CHANNELS 6 Xposition Yposition Zposition Zrotation Xrotation Yrotation 
							JOINT Hand_R
							{
								OFFSET -22.2915 -0.000108084 0.0
								CHANNELS 6 Xposition Yposition Zposition Zrotation Xrotation Yrotation 
								End Site
								{
									OFFSET 0.0 0.0 0.0
								}
							}
						}
					}
				}
			}
		}
		JOINT UpperLeg_L
		{
			OFFSET -2.19248 -6.46944 0.0
			CHANNELS 6 Xposition Yposition Zposition Zrotation Xrotation Yrotation 
			JOINT LowerLeg_L
			{
				OFFSET 39.0811 0.0 -1.23785e-05
				CHANNELS 6 Xposition Yposition Zposition Zrotation Xrotation Yrotation 
				JOINT Foot_L
				{
					OFFSET 40.9854 0.0 -1.26872e-05
					CHANNELS 6 Xposition Yposition Zposition Zrotation Xrotation Yrotation 
					JOINT Toes_L
					{
						OFFSET 11.7543 0.0 0.0
						CHANNELS 6 Xposition Yposition Zposition Zrotation Xrotation Yrotation 
						End Site
						{
							OFFSET 0.0 0.0 0.0
						}
					}
				}
			}
		}
		JOINT UpperLeg_R
		{
			OFFSET -2.19251 6.46944 0.0
			CHANNELS 6 Xposition Yposition Zposition Zrotation Xrotation Yrotation 
			JOINT LowerLeg_R
			{
				OFFSET -39.0811 -0.00228153 -0.0401928
				CHANNELS 6 Xposition Yposition Zposition Zrotation Xrotation Yrotation 
				JOINT Foot_R
				{
					OFFSET -40.9854 0.0 0.0
					CHANNELS 6 Xposition Yposition Zposition Zrotation Xrotation Yrotation 
					JOINT Toes_R
					{
						OFFSET -11.7543 0.0 0.0
						CHANNELS 6 Xposition Yposition Zposition Zrotation Xrotation Yrotation 
						End Site
						{
							OFFSET 0.0 0.0 0.0
						}
					}
				}
			}
		}
	}
}
MOTION
Frames:	4
Frame Time:	0.0333333
0.000000 0.000000 0.000000 0.000000 0.000000 -0.000000 -0.486877 81.288900 -2.466210 87.603900 -3.694350 10.860000 15.735700 0.000005 -0.000001 85.542400 80.759900 -85.226500 8.984550 -0.406207 -0.000000 10.664600 -1.418190 0.763901 16.377300 -0.000001 -0.000001 -5.561510 -1.588590 1.005080 6.456720 -0.000001 -0.000000 -7.309790 -0.071391 2.457000 12.994200 -0.242716 4.980390 -90.518700 2.015330 -75.562700 5.348090 -0.000007 -0.000001 -64.304700 20.825500 -15.831100 24.328600 0.000019 0.000005 8.254010 17.241500 -26.072400 22.291600 -0.000001 0.000005 11.369700 5.418870 -3.553110 12.994500 -0.242716 -4.980390 88.976800 6.629600 -81.205300 -5.348130 -0.000001 -0.000004 -62.293500 24.542700 -16.333300 -24.328900 0.000322 -0.000009 -1.234300 -3.397220 -19.951200 -22.291500 -0.000108 -0.000004 13.508100 5.509590 -6.909230 -2.192480 -6.469440 -0.000000 -171.787000 -13.527300 -18.171600 39.081100 -0.000007 -0.000012 -0.400339 0.182232 65.526200 40.985400 -0.000006 -0.000013 3.063930 7.479990 -86.156900 11.754300 -0.000000 0.000003 -0.000543 -0.004268 -16.733000 -2.192510 6.469440 -0.000001 177.935000 13.025200 162.064000 -39.081100 -0.002282 -0.040193 0.095581 -0.043978 64.550900 -40.985400 0.000008 0.000006 6.935480 5.146310 -85.938600 -11.754300 -0.000006 -0.000006 -0.512373 -0.629349 -16.366800
0.000000 0.000000 0.000000 0.000000 0.000000 -0.000000 -0.525849 83.149100 -1.372050 87.680000 -2.896570 10.789900 15.735700 0.000005 -0.000001 84.186000 81.691800 -83.903600 8.984550 -0.406207 -0.000000 8.771870 -1.672310 0.692672 16.377300 -0.000001 -0.000001 -4.430530 -1.458910 0.930849 6.456720 -0.000001 -0.000000 -5.996910 0.188111 2.360850 12.994200 -0.242716 4.980390 -90.249300 0.936512 -75.079000 5.348090 -0.000007 -0.000001 -63.054800 10.045700 -16.333200 24.328600 0.000019 0.000005 7.676190 19.074200 -22.418000 22.291600 -0.000001 0.000005 7.444870 5.414610 -3.418640 12.994500 -0.242716 -4.980390 89.046300 5.549860 -80.231100 -5.348130 -0.000001 -0.000004 -58.198400 18.502700 -16.692300 -24.328900 0.000322 -0.000009 -0.735644 -2.734160 -15.038500 -22.291500 -0.000108 -0.000004 9.758710 5.488720 -6.083770 -2.192480 -6.469440 -0.000000 -171.957000 -12.720200 -14.878500 39.081100 -0.000007 -0.000012 -0.383580 0.219625 60.207000 40.985400 -0.000006 -0.000013 2.712390 7.621810 -84.286700 11.754300 -0.000000 0.000003 -0.000492 -0.003931 -16.721300 -2.192510 6.469440 -0.000001 177.656000 13.272600 165.587000 -39.081100 -0.002282 -0.040193 0.083363 -0.047665 59.262700 -40.985400 0.000008 0.000006 6.506470 5.030170 -84.016200 -11.754300 -0.000006 -0.000006 -0.482924 -0.592602 -16.567700
0.000000 0.000000 0.000000 0.000000 0.000000 -0.000000 -0.460837 85.946200 -0.177737 88.248200 -2.524450 10.142100 15.735700 0.000005 -0.000001 83.396100 83.110100 -83.329400 8.984550 -0.406207 -0.000000 5.924950 -1.581650 0.215107 16.377300 -0.000001 -0.000001 -2.597000 -1.451990 0.954844 6.456720 -0.000001 -0.000000 -4.421770 0.001664 2.269760 12.994200 -0.242716 4.980390 -89.693900 -1.074740 -74.112900 5.348090 -0.000007 -0.000001 -56.236100 2.789390 -19.931400 24.328600 0.000019 0.000005 7.024830 20.358100 -19.500500 22.291600 -0.000001 0.000005 9.369600 5.390090 -2.638220 12.994500 -0.242716 -4.980390 89.298600 3.588190 -78.925100 -5.348130 -0.000001 -0.000004 -52.107600 8.171770 -18.199300 -24.328900 0.000322 -0.000009 -0.600259 -3.062070 -11.084300 -22.291500 -0.000108 -0.000004 10.289900 5.463270 -5.122710 -2.192480 -6.469440 -0.000000 -172.714000 -12.655600 -10.201400 39.081100 -0.000007 -0.000012 -0.327106 0.263101 51.190000 40.985400 -0.000006 -0.000013 2.281650 7.956850 -80.642900 11.754300 -0.000000 0.000003 -0.000346 -0.002927 -16.686100 -2.192510 6.469440 -0.000001 176.980000 13.250300 170.030000 -39.081100 -0.002282 -0.040193 0.060888 -0.047140 50.724400 -40.985400 0.000008 0.000006 5.855390 5.478960 -80.135000 -11.754300 -0.000006 -0.000006 -0.474791 -0.583263 -17.004400
0.000000 0.000000 0.000000 0.000000 0.000000 -0.000000 -0.388915 88.644000 0.948553 88.648700 -2.088760 9.071100 15.735700 0.000005 -0.000001 81.485900 84.756900 -81.551300 8.984550 -0.406207 -0.000000 2.604650 -1.548240 -0.095465 16.377300 -0.000001 -0.000001 -0.119591 -1.584520 0.884114 6.456720 -0.000001 -0.000000 -2.720450 -0.214143 2.513340 12.994200 -0.242716 4.980390 -89.031200 -3.195060 -73.126600 5.348090 -0.000007 -0.000001 -49.407900 -9.829270 -26.007700 24.328600 0.000019 0.000005 5.639790 19.432900 -16.531200 22.291600 -0.000001 0.000005 10.296700 5.340270 -1.092090 12.994500 -0.242716 -4.980390 89.742400 1.153650 -77.386200 -5.348130 -0.000001 -0.000004 -43.454200 -3.634110 -22.434200 -24.328900 0.000322 -0.000009 -0.426721 -3.187530 -7.611590 -22.291500 -0.000108 -0.000004 10.131000 5.438610 -4.236800 -2.192480 -6.469440 -0.000000 -173.317000 -12.941600 -5.380830 39.081100 -0.000007 -0.000012 -0.243517 0.281647 40.847800 40.985400 -0.000006 -0.000013 1.833180 8.626760 -76.219600 11.754300 -0.000000 0.000003 -0.000184 -0.001724 -16.642800 -2.192510 6.469440 -0.000001 176.316000 14.481900 174.426000 -39.081100 -0.002282 -0.040193 0.040392 -0.042301 41.264900 -40.985400 0.000008 0.000006 5.596060 6.840100 -75.183300 -11.754300 -0.000006 -0.000006 -0.524769 -0.644553 -17.960100
